<svg width="667" height="390" viewBox="0 0 667 390" fill="none" xmlns="http://www.w3.org/2000/svg">
<g filter="url(#filter0_d)">
<rect x="65" width="536" height="360" rx="3" fill="#E4E4E4"/>
<rect x="66" y="1" width="534" height="358" rx="2" stroke="black" stroke-width="2"/>
</g>
<path d="M550 15H559" stroke="black"/>
<path d="M570.5 12H564V18H570.5V12Z" stroke="black"/>
<path d="M0 386H666.5" stroke="#A2A2A2" stroke-width="7"/>
<path d="M576 10.5L579.25 15M582.5 19.5L579.25 15M579.25 15L576 19.5L582.5 10.5" stroke="black"/>
<path d="M102.5 62H330" stroke="#B44B4B" stroke-width="3"/>
<path d="M102 90.5H291" stroke="#20802F" stroke-width="3"/>
<path d="M319.5 90.5H416" stroke="#130FB8" stroke-width="3"/>
<path d="M103 123H211" stroke="#130FB8" stroke-width="3"/>
<path d="M244 123H354" stroke="black" stroke-width="3"/>
<rect x="102" y="152" width="252" height="100" fill="#D5D5D5"/>
<path d="M222 210V185L244 198L222 210Z" fill="#5E47BC"/>
<defs>
<filter id="filter0_d" x="61" y="0" width="544" height="368" filterUnits="userSpaceOnUse" color-interpolation-filters="sRGB">
<feFlood flood-opacity="0" result="BackgroundImageFix"/>
<feColorMatrix in="SourceAlpha" type="matrix" values="0 0 0 0 0 0 0 0 0 0 0 0 0 0 0 0 0 0 127 0"/>
<feOffset dy="4"/>
<feGaussianBlur stdDeviation="2"/>
<feColorMatrix type="matrix" values="0 0 0 0 0 0 0 0 0 0 0 0 0 0 0 0 0 0 0.25 0"/>
<feBlend mode="normal" in2="BackgroundImageFix" result="effect1_dropShadow"/>
<feBlend mode="normal" in="SourceGraphic" in2="effect1_dropShadow" result="shape"/>
</filter>
</defs>
</svg>
